<svg width="11" height="10" viewBox="0 0 11 10" fill="none" xmlns="http://www.w3.org/2000/svg">
<path d="M9.70946 1.70827L6.43333 4.9844L9.70946 8.29173C10.1151 8.66615 10.1151 9.32137 9.70946 9.69579C9.33504 10.1014 8.67982 10.1014 8.3054 9.69579L5.02927 6.41966L1.72194 9.69579C1.34753 10.1014 0.692299 10.1014 0.317884 9.69579C-0.0877322 9.32137 -0.0877322 8.66615 0.317884 8.29173L3.59401 4.9844L0.317884 1.70827C-0.0877322 1.33385 -0.0877322 0.678627 0.317884 0.304212C0.692299 -0.101404 1.34753 -0.101404 1.72194 0.304212L5.02927 3.58034L8.3054 0.304212C8.67982 -0.101404 9.33504 -0.101404 9.70946 0.304212C10.1151 0.678627 10.1151 1.33385 9.70946 1.70827Z" fill="black"/>
</svg>
