<svg width="15" height="15" viewBox="0 0 15 15" fill="none" xmlns="http://www.w3.org/2000/svg">
<path d="M7.48438 4.09375C9.45312 4.09375 11.0781 5.71875 11.0781 7.6875C11.0781 9.6875 9.45312 11.2812 7.48438 11.2812C5.48438 11.2812 3.89062 9.6875 3.89062 7.6875C3.89062 5.71875 5.48438 4.09375 7.48438 4.09375ZM7.48438 10.0312C8.76562 10.0312 9.79688 9 9.79688 7.6875C9.79688 6.40625 8.76562 5.375 7.48438 5.375C6.17188 5.375 5.14062 6.40625 5.14062 7.6875C5.14062 9 6.20312 10.0312 7.48438 10.0312ZM12.0469 3.96875C12.0469 3.5 11.6719 3.125 11.2031 3.125C10.7344 3.125 10.3594 3.5 10.3594 3.96875C10.3594 4.4375 10.7344 4.8125 11.2031 4.8125C11.6719 4.8125 12.0469 4.4375 12.0469 3.96875ZM14.4219 4.8125C14.4844 5.96875 14.4844 9.4375 14.4219 10.5938C14.3594 11.7188 14.1094 12.6875 13.2969 13.5312C12.4844 14.3438 11.4844 14.5938 10.3594 14.6562C9.20312 14.7188 5.73438 14.7188 4.57812 14.6562C3.45312 14.5938 2.48438 14.3438 1.64062 13.5312C0.828125 12.6875 0.578125 11.7188 0.515625 10.5938C0.453125 9.4375 0.453125 5.96875 0.515625 4.8125C0.578125 3.6875 0.828125 2.6875 1.64062 1.875C2.48438 1.0625 3.45312 0.8125 4.57812 0.75C5.73438 0.6875 9.20312 0.6875 10.3594 0.75C11.4844 0.8125 12.4844 1.0625 13.2969 1.875C14.1094 2.6875 14.3594 3.6875 14.4219 4.8125ZM12.9219 11.8125C13.2969 10.9062 13.2031 8.71875 13.2031 7.6875C13.2031 6.6875 13.2969 4.5 12.9219 3.5625C12.6719 2.96875 12.2031 2.46875 11.6094 2.25C10.6719 1.875 8.48438 1.96875 7.48438 1.96875C6.45312 1.96875 4.26562 1.875 3.35938 2.25C2.73438 2.5 2.26562 2.96875 2.01562 3.5625C1.64062 4.5 1.73438 6.6875 1.73438 7.6875C1.73438 8.71875 1.64062 10.9062 2.01562 11.8125C2.26562 12.4375 2.73438 12.9062 3.35938 13.1562C4.26562 13.5312 6.45312 13.4375 7.48438 13.4375C8.48438 13.4375 10.6719 13.5312 11.6094 13.1562C12.2031 12.9062 12.7031 12.4375 12.9219 11.8125Z" fill="white"/>
</svg>
