<svg width="16" height="14" viewBox="0 0 16 14" fill="none" xmlns="http://www.w3.org/2000/svg">
<path d="M14.3438 3.4375C14.3438 3.59375 14.3438 3.71875 14.3438 3.875C14.3438 8.21875 11.0625 13.1875 5.03125 13.1875C3.15625 13.1875 1.4375 12.6562 0 11.7188C0.25 11.75 0.5 11.7812 0.78125 11.7812C2.3125 11.7812 3.71875 11.25 4.84375 10.375C3.40625 10.3438 2.1875 9.40625 1.78125 8.09375C2 8.125 2.1875 8.15625 2.40625 8.15625C2.6875 8.15625 3 8.09375 3.25 8.03125C1.75 7.71875 0.625 6.40625 0.625 4.8125V4.78125C1.0625 5.03125 1.59375 5.15625 2.125 5.1875C1.21875 4.59375 0.65625 3.59375 0.65625 2.46875C0.65625 1.84375 0.8125 1.28125 1.09375 0.8125C2.71875 2.78125 5.15625 4.09375 7.875 4.25C7.8125 4 7.78125 3.75 7.78125 3.5C7.78125 1.6875 9.25 0.21875 11.0625 0.21875C12 0.21875 12.8438 0.59375 13.4688 1.25C14.1875 1.09375 14.9062 0.8125 15.5312 0.4375C15.2812 1.21875 14.7812 1.84375 14.0938 2.25C14.75 2.1875 15.4062 2 15.9688 1.75C15.5312 2.40625 14.9688 2.96875 14.3438 3.4375Z" fill="white"/>
</svg>
